# xmcd
#
# Track frame offsets: 
#        150
#        22375
#        54057
#        75232
#        107282
#        127725
#        152005
#        173275
#        196530
#        228910
#
# Disc length: 3408 seconds
#
# Revision: 4
# Processed by: cddbd v1.5.2PL0 Copyright (c) Steve Scherf et al.
# Submitted via: ExactAudioCopy v1.1
#
DISCID=590d4e0a
DTITLE=Buddy Guy - The Complete D.J. Play My Blues Session
DYEAR=1982
DGENRE=Blues
TTITLE0=Girl You're Nice And Clean
TTITLE1=Dedication To The Late T Bone Walker
TTITLE2=Good News
TTITLE3=Blues At My Baby's House
TTITLE4=She Suits Me To A T
TTITLE5=D.J. Play My Blues
TTITLE6=Just Teasin'
TTITLE7=All Your Love
TTITLE8=Garbage Man Blues
TTITLE9=Mellow Down
EXTD=
EXTT0=
EXTT1=
EXTT2=
EXTT3=
EXTT4=
EXTT5=
EXTT6=
EXTT7=
EXTT8=
EXTT9=
PLAYORDER=
